<svg id="Capa_1" data-name="Capa 1" xmlns="http://www.w3.org/2000/svg" viewBox="0 0 500 500"><defs><style>.cls-1{fill:#e8505b;}</style></defs><path class="cls-1" d="M71,93.23l72.64,244.71,11,64.58H107.57L.51,93.23Zm67.12,244.71L211,93.23h71L174.27,402.52H127.54Z"/><path class="cls-1" d="M436,307.57V93.23h63.52V307.57q0,31-13.6,53.21a90.61,90.61,0,0,1-37.07,34.09q-23.46,11.89-52.78,11.9-30.39,0-53.74-10.2a80.62,80.62,0,0,1-36.75-31.33q-13.38-21.14-13.39-53.64H356.1q0,17,4.78,27t13.7,14.23q8.93,4.26,21.46,4.25,12.1,0,21-5.74T431,334.54Q436,323.5,436,307.57Z"/></svg>